<svg width="321" height="454" viewBox="0 0 321 454" fill="none" xmlns="http://www.w3.org/2000/svg">
<path d="M234.618 68.313C257.903 87.741 271.917 116.774 274.841 146.809C275.65 157.962 275.294 169.042 273 180C272.743 181.263 272.487 182.527 272.222 183.828C267.782 204.2 257.15 223.34 242.125 237.813C220.765 258.705 211.152 283.936 207 313C194.46 313 181.92 313 169 313C168.198 292.34 168.198 292.34 168.023 283.406C167.905 277.351 167.765 271.302 167.491 265.252C165.932 229.955 165.932 229.955 173.295 220.053C177.308 215.689 181.719 212.168 186.585 208.802C190.314 206.019 193.086 202.595 196 199C199.146 195.48 202.368 192.043 205.625 188.625C206.438 187.724 207.252 186.823 208.09 185.895C213.742 180.031 217.872 177.88 226.039 177.307C231.645 176.726 235.922 174.132 239.812 170.141C244.439 164.401 246.491 158.571 246.246 151.105C245.385 143.742 242.529 137.95 237 133C230.309 128.235 224.035 127.346 216 128C208.949 129.488 203.583 133.341 199.453 139.191C195.299 146.46 194.67 153.656 196.687 161.762C197.381 163.885 198.128 165.945 199 168C198.504 168.485 198.007 168.969 197.496 169.469C194.162 172.758 190.901 176.049 187.875 179.625C184.312 183.77 180.482 187.631 176.625 191.5C175.993 192.136 175.361 192.773 174.71 193.428C173.821 194.315 173.821 194.315 172.914 195.219C172.377 195.754 171.84 196.29 171.287 196.842C170 198 170 198 169 198C168.259 181.271 167.816 164.528 167.658 147.783C167.636 145.846 167.605 143.908 167.566 141.971C167.512 139.228 167.49 136.486 167.476 133.742C167.454 132.917 167.431 132.093 167.408 131.243C167.422 127.307 167.546 125.468 170.341 122.59C171.219 122.066 172.096 121.541 173 121C178.399 117.143 181.298 113.51 183 107C183.931 99.239 183.699 92.45 179 86C174.198 80.289 168.226 76.551 160.738 75.762C152.928 75.523 147.19 77.306 141.187 82.375C135.284 89.459 133.569 94.449 133.66 103.57C134.354 110.573 137.379 115.878 142.625 120.5C144.695 122.111 146.813 123.542 149 125C149.256 127.993 149.318 130.773 149.249 133.764C149.239 134.672 149.23 135.579 149.22 136.514C149.186 139.523 149.13 142.531 149.074 145.539C149.046 147.621 149.019 149.704 148.994 151.786C148.923 157.274 148.835 162.761 148.742 168.249C148.651 173.845 148.577 179.442 148.502 185.039C148.351 196.026 148.181 207.013 148 218C146.877 217.045 145.755 216.089 144.633 215.132C143.696 214.334 143.696 214.334 142.74 213.519C140.738 211.771 138.902 209.927 137.097 207.977C136.434 207.265 135.771 206.553 135.088 205.82C134.419 205.096 133.751 204.371 133.062 203.625C127.817 197.967 122.493 192.419 117 187C118.612 181.626 118.612 181.626 120.023 179.348C124.129 172.694 123.799 165.594 123 158C121.322 151.287 116.569 146.842 111 143C104.352 139.367 97.7252 139.067 90.5002 141.063C83.8532 143.531 78.7672 147.87 75.5002 154.188C73.0692 160.598 72.8032 167.235 74.8832 173.777C77.4272 179.38 80.6282 183.873 86.0002 187C87.8622 187.663 89.7382 188.287 91.6252 188.875C96.5502 190.517 98.2292 191.964 100.517 196.53C106.897 207.157 117.97 216.072 126.75 224.75C140.826 238.665 140.826 238.665 147 246C147.33 246.33 147.66 246.66 148 247C148.094 249.056 148.117 251.114 148.113 253.172C148.114 253.816 148.114 254.46 148.114 255.123C148.113 257.261 148.105 259.398 148.097 261.535C148.096 263.013 148.094 264.492 148.093 265.97C148.089 269.868 148.08 273.766 148.069 277.664C148.056 282.337 148.052 287.01 148.046 291.683C148.036 298.789 148.017 305.894 148 313C135.13 313 122.26 313 109 313C108.01 304.585 108.01 304.585 107 296C101.224 274.255 91.4752 256.549 75.9882 240.184C67.8002 231.516 60.8732 222.401 55.0002 212C54.4552 211.046 53.9092 210.092 53.3472 209.109C50.3042 203.441 48.0982 197.704 46.2502 191.563C46.0512 190.907 45.8522 190.252 45.6482 189.577C36.9302 158.802 41.5512 125.579 56.7892 97.73C58.4252 95.06 60.1472 92.524 62.0002 90C62.5802 89.2 63.1602 88.399 63.7582 87.574C82.5882 62.875 109.271 46.04 140.222 41.504C174.881 37.327 207.537 46.339 234.618 68.313Z" fill="#FEFEFD"/>
<path d="M252.387 52.6387C278.141 74.3707 294.684 108.825 297.802 142.189C298.909 157.869 298.858 173.711 295 189C294.839 189.644 294.678 190.288 294.512 190.951C288.068 215.892 274.039 238.92 255.313 256.563C239.321 272.127 231.059 294.817 230.571 316.7C230.356 322.279 229.871 328.093 227 333C223.423 335.56 220.948 336.376 216.573 336.381C215.497 336.39 214.42 336.398 213.311 336.407C212.14 336.401 210.969 336.395 209.762 336.389C208.521 336.394 207.28 336.399 206.001 336.404C202.604 336.415 199.208 336.413 195.811 336.403C192.253 336.396 188.694 336.403 185.136 336.407C179.161 336.413 173.185 336.406 167.21 336.391C160.307 336.375 153.404 336.38 146.5 336.397C140.568 336.411 134.636 336.412 128.704 336.405C125.163 336.4 121.622 336.399 118.081 336.409C114.134 336.42 110.186 336.405 106.239 336.389C104.482 336.398 104.482 336.398 102.69 336.407C101.613 336.398 100.537 336.39 99.4267 336.381C98.4937 336.38 97.5617 336.379 96.6007 336.378C93.4547 335.921 91.5677 334.845 88.9997 333C86.4097 328.702 86.6827 324.001 86.5627 319.125C85.3147 289.313 71.8397 268.722 51.8747 247.563C29.3947 222.921 18.7757 190.529 18.7497 157.625C18.7497 156.86 18.7487 156.094 18.7477 155.306C18.7637 144.252 19.0927 133.73 21.9997 123C22.1717 122.351 22.3427 121.701 22.5197 121.032C28.2847 99.6377 38.3797 80.6687 52.9997 63.9997C54.0597 62.7417 54.0597 62.7417 55.1407 61.4567C105.788 2.70271 195.585 5.51771 252.387 52.6387ZM75.9997 73.9997C75.2147 74.7327 74.4297 75.4647 73.6207 76.2187C68.2737 81.3587 63.9557 86.7317 59.9997 92.9997C59.0097 94.5587 59.0097 94.5587 57.9997 96.1487C52.6367 105.026 48.9047 114.051 45.9997 124C45.7887 124.718 45.5767 125.435 45.3587 126.174C37.2727 154.806 41.3067 186.326 54.9997 212.532C60.7307 222.728 68.0567 231.392 76.0507 239.864C95.5737 260.557 106.631 284.564 109 313C121.87 313 134.74 313 148 313C148.204 301.441 148.204 301.441 148.342 289.881C148.384 285.162 148.433 280.445 148.528 275.727C148.605 271.92 148.646 268.115 148.664 264.308C148.677 262.86 148.702 261.411 148.74 259.963C149.147 251.961 149.147 251.961 146.502 244.633C144.759 242.888 142.974 241.472 141 240C139.963 238.848 138.95 237.673 137.973 236.469C134.557 232.51 130.896 228.835 127.184 225.157C126.56 224.539 125.937 223.921 125.295 223.284C122.686 220.704 120.075 218.127 117.459 215.555C115.529 213.656 113.606 211.75 111.684 209.844C111.102 209.276 110.521 208.708 109.922 208.123C105.361 203.59 100.739 198.692 97.9757 192.825C97.1167 190.767 97.1167 190.767 94.6797 189.981C93.7537 189.719 92.8287 189.457 91.8747 189.188C84.4647 186.682 79.1577 182.848 75.4997 175.813C73.0687 169.402 72.8027 162.766 74.8827 156.223C77.8267 149.74 81.6847 145.045 88.1677 141.973C96.2197 138.966 102.79 139.259 110.602 142.672C115.782 145.541 120.532 150.042 122.555 155.739C124.537 165.807 123.536 173.806 118.117 182.512C116.699 184.89 116.699 184.89 117.729 186.944C119.051 189.082 120.429 190.642 122.231 192.391C122.866 193.014 123.5 193.638 124.155 194.28C124.826 194.93 125.496 195.58 126.188 196.25C130.781 200.76 135.241 205.267 139.376 210.206C141.041 212.046 142.79 213.619 144.688 215.215C145.31 215.741 145.933 216.267 146.575 216.809C147.045 217.202 147.516 217.595 148 218C148.34 205.996 148.63 193.992 148.858 181.986C148.965 176.41 149.089 170.836 149.252 165.262C149.409 159.881 149.521 154.5 149.602 149.117C149.641 147.066 149.696 145.014 149.767 142.964C150.624 132.098 150.624 132.098 147.056 122.296C144.737 120.409 144.737 120.409 142.239 119.207C137.709 116.765 135.573 111.719 134 107C133.187 97.2517 134.004 90.7527 140.313 83.2497C146.432 78.1267 152.236 75.6257 160.235 75.7187C166.232 76.3287 171.252 78.5557 175.875 82.3747C182.451 90.4977 184.05 96.6247 183 107C180.632 114.389 177.011 118.623 170.377 122.556C167.556 125.457 167.423 127.273 167.408 131.243C167.431 132.068 167.454 132.893 167.477 133.743C167.483 135.046 167.483 135.046 167.49 136.375C167.511 139.209 167.567 142.042 167.625 144.875C167.647 146.819 167.667 148.763 167.686 150.707C167.862 166.476 168.302 182.246 169 198C173.886 193.9 178.509 189.653 183 185.125C183.914 184.206 183.914 184.206 184.847 183.268C193.16 175.515 193.16 175.515 199 166C198.261 164.388 197.519 162.778 196.758 161.176C194.503 154.701 195.252 147.775 198.063 141.625C201.763 135.15 206.699 130.787 213.832 128.469C220.822 126.958 227.735 127.435 234 131C239.881 135.196 243.645 139.32 245.688 146.375C246.717 155.021 245.852 162.62 240.5 169.75C236.532 173.974 231.502 176.361 226 178C225.299 177.971 224.598 177.942 223.876 177.911C218.359 177.767 215.344 179.118 211.242 182.878C208.357 185.704 205.579 188.621 202.813 191.563C201.667 192.745 200.519 193.926 199.369 195.104C194.457 200.165 189.606 205.261 185.136 210.723C183.363 212.614 181.646 214.132 179.637 215.747C173.39 220.973 168.392 225.581 167.509 233.989C167.335 238.401 167.453 242.771 167.633 247.18C167.659 249.088 167.679 250.996 167.693 252.904C167.746 257.882 167.883 262.853 168.039 267.828C168.209 273.821 168.272 279.816 168.353 285.81C168.488 294.878 168.757 303.932 169 313C181.54 313 194.08 313 207 313C207.66 308.05 208.32 303.1 209 298C209.79 294.602 210.593 291.374 211.625 288.063C211.885 287.222 212.144 286.382 212.411 285.515C218.331 267.128 228.562 252.398 241.809 238.546C260.221 219.213 273.99 194.247 275 167C275.052 165.723 275.103 164.445 275.157 163.129C276.047 129.873 264.575 98.9057 241.746 74.6527C223.807 57.3247 201.728 45.6617 177 41.9997C175.774 41.8167 174.548 41.6337 173.285 41.4457C136.387 37.0097 102.789 48.6437 75.9997 73.9997Z" fill="#53C22F"/>
<path d="M103.725 353.846C104.722 353.837 105.719 353.829 106.746 353.82C107.843 353.816 108.941 353.811 110.072 353.807C111.801 353.795 111.801 353.795 113.566 353.782C117.394 353.757 121.223 353.741 125.051 353.726C127.008 353.718 127.008 353.718 129.005 353.71C134.488 353.689 139.97 353.67 145.453 353.659C153.31 353.642 161.166 353.609 169.023 353.552C174.547 353.514 180.072 353.494 185.596 353.489C188.896 353.485 192.195 353.471 195.495 353.441C199.177 353.409 202.858 353.409 206.541 353.416C208.178 353.392 208.178 353.392 209.849 353.367C217.232 353.428 217.232 353.428 221.154 356.349C224.126 360.616 224.342 363.881 224 369C222.452 373.644 221.216 376.467 217 379C214.679 379.38 214.679 379.38 212.073 379.388C211.082 379.397 210.091 379.407 209.07 379.418C207.989 379.413 206.908 379.409 205.794 379.404C204.078 379.414 204.078 379.414 202.329 379.425C198.543 379.443 194.758 379.439 190.973 379.433C188.345 379.438 185.717 379.443 183.089 379.449C177.579 379.459 172.069 379.456 166.558 379.446C160.193 379.434 153.828 379.449 147.462 379.475C141.334 379.5 135.205 379.503 129.077 379.496C126.471 379.496 123.865 379.502 121.26 379.515C117.619 379.529 113.978 379.519 110.337 379.502C109.257 379.511 108.178 379.521 107.067 379.531C99.7826 379.459 99.7826 379.459 95.8536 377.156C92.7326 373.526 92.7876 370.193 92.6876 365.562C92.6316 363.863 92.6316 363.863 92.5746 362.129C93.0856 358.375 94.0666 357.302 96.9996 355C99.4326 353.784 101.005 353.863 103.725 353.846Z" fill="#02552B"/>
<path d="M122.979 391.349C129.622 391.526 132.97 393.336 137.809 397.953C144.371 404.082 152.251 404.535 160.811 404.403C170.352 404.027 176.777 401.275 183.999 395C184.449 394.481 184.898 393.962 185.361 393.427C188.219 390.939 191.96 391.655 195.562 391.75C196.734 391.758 196.733 391.758 197.927 391.766C203.69 391.846 203.691 391.846 206 393C206.643 399.748 205.896 403.422 201.821 408.871C191.232 421.255 177.421 425.879 161.497 427.317C146.357 427.851 131.061 423.527 119.301 413.758C114.135 408.817 110.299 404.6 109.688 397.25C110.392 389.915 117.141 391.411 122.979 391.349Z" fill="#025329"/>
<path d="M221.562 144.875C225.636 146.208 226.988 147.229 229 151C229.081 154.971 228.468 156.478 225.812 159.437C223 161 223 161 219.937 161C216.542 159.844 215.062 158.935 213 156C212.437 153.063 212.437 153.063 213 150C215.666 146.202 216.867 145.04 221.562 144.875Z" fill="#F8FCF7"/>
<path d="M102 158C104.438 159.625 104.438 159.625 106 162C106.562 164.938 106.562 164.938 106 168C103.938 170.938 103.938 170.938 101 173C97.456 173 95.134 172.659 92.062 170.875C90.329 167.815 90.579 165.432 91 162C93.888 157.495 96.882 157.269 102 158Z" fill="#FAFCF9"/>
<path d="M161 93C163.938 95.062 163.938 95.062 166 98C166 101.544 165.659 103.866 163.875 106.938C160.815 108.671 158.432 108.421 155 108C152.562 106.438 152.562 106.438 151 104C150.432 100.025 150.377 97.935 152.625 94.562C155.757 92.502 157.315 92.323 161 93Z" fill="#FBFDFA"/>
<path d="M149 130C149.33 130 149.66 130 150 130C150 159.37 150 188.74 150 219C149.01 219.495 149.01 219.495 148 220C147.01 219.34 146.02 218.68 145 218C145.495 217.01 145.495 217.01 146 216C146.33 216.33 146.66 216.66 147 217C147.01 216.072 147.021 215.145 147.031 214.189C147.13 205.407 147.232 196.624 147.339 187.842C147.394 183.328 147.448 178.815 147.497 174.301C147.545 169.937 147.598 165.573 147.653 161.209C147.673 159.552 147.692 157.895 147.709 156.238C147.801 147.454 147.983 138.737 149 130Z" fill="#5AC538"/>
<path d="M102 355C101.402 355.247 100.804 355.495 100.188 355.75C97.609 357.223 96.571 358.486 95 361C94.43 363.579 94.43 363.579 94.312 366.25C94.247 367.142 94.181 368.034 94.113 368.953C94.076 369.629 94.039 370.304 94 371C93.67 371 93.34 371 93 371C92.892 369.085 92.814 367.167 92.75 365.25C92.704 364.183 92.657 363.115 92.609 362.016C93 359 93 359 94.844 356.625C97.442 354.667 98.821 354.647 102 355Z" fill="#09310F"/>
<path d="M238 241C238.99 241.33 239.98 241.66 241 242C236.5 247.875 236.5 247.875 232 249C233.98 246.36 235.96 243.72 238 241Z" fill="#42BA21"/>
<path d="M196 146C196.33 146 196.66 146 197 146C197.33 149.3 197.66 152.6 198 156C197.01 156.33 196.02 156.66 195 157C194.973 155.354 194.954 153.708 194.938 152.062C194.926 151.146 194.914 150.229 194.902 149.285C195 147 195 147 196 146Z" fill="#42BF1D"/>
<path d="M150 97C150.33 97 150.66 97 151 97C151.062 98.052 151.124 99.104 151.188 100.188C152.134 104.629 153.592 106.116 157 109C154.688 108.875 154.688 108.875 152 108C149.828 104.814 148.892 102.994 149.312 99.125C149.653 98.073 149.653 98.073 150 97Z" fill="#43BF1B"/>
<path d="M197 169C197.66 169.33 198.32 169.66 199 170C198.07 171.152 197.131 172.297 196.188 173.438C195.404 174.395 195.404 174.395 194.605 175.371C193 177 193 177 190 178C191.555 174.183 194.036 171.808 197 169Z" fill="#48BE25"/>
<path d="M69 77C69.99 77 70.98 77 72 77C70.332 80.941 67.773 83.789 65 87C64.67 86.34 64.34 85.68 64 85C65 82 65 82 68 80C68.33 79.01 68.66 78.02 69 77Z" fill="#3EBD1A"/>
<path d="M178 400C178.33 400.99 178.66 401.98 179 403C175.565 405.29 174.015 405.178 170 405C172.56 402.989 175.046 401.372 178 400Z" fill="#063E1A"/>
<path d="M46 73C46.66 73 47.32 73 48 73C47.67 73.99 47.34 74.98 47 76C46.34 76 45.68 76 45 76C44.598 77.145 44.598 77.145 44.188 78.312C43.056 80.874 42.088 82.197 40 84C40.609 80.907 41.599 78.804 43.438 76.25C43.869 75.636 44.301 75.023 44.746 74.391C45.367 73.702 45.367 73.702 46 73Z" fill="#3ABA16"/>
</svg>
